<mxfile host="app.diagrams.net" modified="2024-05-30T05:12:48.137Z" agent="Mozilla/5.0 (Macintosh; Intel Mac OS X 10_15_7) AppleWebKit/537.36 (KHTML, like Gecko) Chrome/125.0.0.0 Safari/537.36" etag="QzLMHaUbvSJnWDveyeBp" version="24.4.10" type="github">
  <diagram name="Page-1" id="lMm5w0ZSSQyV5HaTxzRD">
    <mxGraphModel dx="1000" dy="598" grid="1" gridSize="10" guides="1" tooltips="1" connect="1" arrows="1" fold="1" page="1" pageScale="1" pageWidth="827" pageHeight="1169" math="0" shadow="0">
      <root>
        <mxCell id="0" />
        <mxCell id="1" parent="0" />
        <mxCell id="rzZ8jjnwG9v7Gxqw8xNn-2" value="Loans" style="swimlane;childLayout=stackLayout;horizontal=1;startSize=50;horizontalStack=0;rounded=1;fontSize=14;fontStyle=0;strokeWidth=2;resizeParent=0;resizeLast=1;shadow=0;dashed=0;align=center;arcSize=4;whiteSpace=wrap;html=1;fillColor=#e1d5e7;strokeColor=#9673a6;" vertex="1" parent="1">
          <mxGeometry x="320" y="280" width="110" height="150" as="geometry" />
        </mxCell>
        <mxCell id="rzZ8jjnwG9v7Gxqw8xNn-3" value="+records&lt;div&gt;+loan date(PK)&lt;/div&gt;&lt;div&gt;+return date&lt;/div&gt;&lt;div&gt;+member ID(FK)&lt;/div&gt;&lt;div&gt;+staff(FK)&lt;/div&gt;&lt;div&gt;+barcode (PK)(FK)&lt;/div&gt;" style="align=left;strokeColor=none;fillColor=none;spacingLeft=4;fontSize=12;verticalAlign=top;resizable=0;rotatable=0;part=1;html=1;" vertex="1" parent="rzZ8jjnwG9v7Gxqw8xNn-2">
          <mxGeometry y="50" width="110" height="100" as="geometry" />
        </mxCell>
        <mxCell id="rzZ8jjnwG9v7Gxqw8xNn-4" value="Librarians" style="swimlane;childLayout=stackLayout;horizontal=1;startSize=50;horizontalStack=0;rounded=1;fontSize=14;fontStyle=0;strokeWidth=2;resizeParent=0;resizeLast=1;shadow=0;dashed=0;align=center;arcSize=4;whiteSpace=wrap;html=1;fillColor=#e1d5e7;strokeColor=#9673a6;" vertex="1" parent="1">
          <mxGeometry x="90" y="280" width="110" height="150" as="geometry" />
        </mxCell>
        <mxCell id="rzZ8jjnwG9v7Gxqw8xNn-5" value="&lt;div&gt;&lt;span style=&quot;background-color: initial;&quot;&gt;+staff ID(PK)&lt;/span&gt;&lt;/div&gt;&lt;div&gt;+name&lt;/div&gt;&lt;div&gt;+address&lt;/div&gt;&lt;div&gt;+phone&lt;/div&gt;" style="align=left;strokeColor=none;fillColor=none;spacingLeft=4;fontSize=12;verticalAlign=top;resizable=0;rotatable=0;part=1;html=1;" vertex="1" parent="rzZ8jjnwG9v7Gxqw8xNn-4">
          <mxGeometry y="50" width="110" height="100" as="geometry" />
        </mxCell>
        <mxCell id="rzZ8jjnwG9v7Gxqw8xNn-6" value="Members" style="swimlane;childLayout=stackLayout;horizontal=1;startSize=50;horizontalStack=0;rounded=1;fontSize=14;fontStyle=0;strokeWidth=2;resizeParent=0;resizeLast=1;shadow=0;dashed=0;align=center;arcSize=4;whiteSpace=wrap;html=1;fillColor=#e1d5e7;strokeColor=#9673a6;" vertex="1" parent="1">
          <mxGeometry x="90" y="460" width="110" height="150" as="geometry" />
        </mxCell>
        <mxCell id="rzZ8jjnwG9v7Gxqw8xNn-7" value="+member ID(PK)&lt;div&gt;+address&lt;/div&gt;&lt;div&gt;+phone number&lt;/div&gt;&lt;div&gt;+name&lt;/div&gt;" style="align=left;strokeColor=none;fillColor=none;spacingLeft=4;fontSize=12;verticalAlign=top;resizable=0;rotatable=0;part=1;html=1;" vertex="1" parent="rzZ8jjnwG9v7Gxqw8xNn-6">
          <mxGeometry y="50" width="110" height="100" as="geometry" />
        </mxCell>
        <mxCell id="rzZ8jjnwG9v7Gxqw8xNn-8" value="Books" style="swimlane;childLayout=stackLayout;horizontal=1;startSize=50;horizontalStack=0;rounded=1;fontSize=14;fontStyle=0;strokeWidth=2;resizeParent=0;resizeLast=1;shadow=0;dashed=0;align=center;arcSize=4;whiteSpace=wrap;html=1;fillColor=#e1d5e7;strokeColor=#9673a6;" vertex="1" parent="1">
          <mxGeometry x="90" y="100" width="110" height="150" as="geometry" />
        </mxCell>
        <mxCell id="rzZ8jjnwG9v7Gxqw8xNn-9" value="+barcode(PK)&lt;div&gt;+title&lt;/div&gt;&lt;div&gt;+author&lt;/div&gt;&lt;div&gt;+publication year&lt;/div&gt;&lt;div&gt;+ISBN&lt;/div&gt;&lt;div&gt;+genre&lt;/div&gt;" style="align=left;strokeColor=none;fillColor=none;spacingLeft=4;fontSize=12;verticalAlign=top;resizable=0;rotatable=0;part=1;html=1;" vertex="1" parent="rzZ8jjnwG9v7Gxqw8xNn-8">
          <mxGeometry y="50" width="110" height="100" as="geometry" />
        </mxCell>
        <mxCell id="rzZ8jjnwG9v7Gxqw8xNn-21" value="" style="endArrow=none;html=1;rounded=0;startArrow=ERoneToMany;startFill=0;exitX=0;exitY=0.25;exitDx=0;exitDy=0;entryX=1;entryY=0.25;entryDx=0;entryDy=0;" edge="1" parent="1" source="rzZ8jjnwG9v7Gxqw8xNn-3" target="rzZ8jjnwG9v7Gxqw8xNn-9">
          <mxGeometry relative="1" as="geometry">
            <mxPoint x="620" y="90" as="sourcePoint" />
            <mxPoint x="690" y="190" as="targetPoint" />
            <Array as="points">
              <mxPoint x="280" y="355" />
              <mxPoint x="280" y="175" />
            </Array>
          </mxGeometry>
        </mxCell>
        <mxCell id="rzZ8jjnwG9v7Gxqw8xNn-22" value="" style="endArrow=none;html=1;rounded=0;startArrow=ERoneToMany;startFill=0;exitX=0;exitY=0.5;exitDx=0;exitDy=0;entryX=1;entryY=0.5;entryDx=0;entryDy=0;" edge="1" parent="1" source="rzZ8jjnwG9v7Gxqw8xNn-3" target="rzZ8jjnwG9v7Gxqw8xNn-5">
          <mxGeometry relative="1" as="geometry">
            <mxPoint x="280" y="360" as="sourcePoint" />
            <mxPoint x="200" y="360" as="targetPoint" />
          </mxGeometry>
        </mxCell>
        <mxCell id="rzZ8jjnwG9v7Gxqw8xNn-23" value="" style="endArrow=none;html=1;rounded=0;startArrow=ERoneToMany;startFill=0;entryX=1;entryY=0.5;entryDx=0;entryDy=0;exitX=0;exitY=0.7;exitDx=0;exitDy=0;exitPerimeter=0;" edge="1" parent="1" source="rzZ8jjnwG9v7Gxqw8xNn-3" target="rzZ8jjnwG9v7Gxqw8xNn-7">
          <mxGeometry relative="1" as="geometry">
            <mxPoint x="280" y="400" as="sourcePoint" />
            <mxPoint x="230" y="580" as="targetPoint" />
            <Array as="points">
              <mxPoint x="280" y="400" />
              <mxPoint x="280" y="560" />
            </Array>
          </mxGeometry>
        </mxCell>
        <mxCell id="rzZ8jjnwG9v7Gxqw8xNn-24" value="Book" style="swimlane;fontStyle=1;align=center;verticalAlign=top;childLayout=stackLayout;horizontal=1;startSize=26;horizontalStack=0;resizeParent=1;resizeParentMax=0;resizeLast=0;collapsible=1;marginBottom=0;whiteSpace=wrap;html=1;fillColor=#e1d5e7;strokeColor=#9673a6;" vertex="1" parent="1">
          <mxGeometry x="750" y="630" width="170" height="154" as="geometry" />
        </mxCell>
        <mxCell id="rzZ8jjnwG9v7Gxqw8xNn-25" value="- barcode: String(PK)&lt;div&gt;- book_title: String&lt;/div&gt;&lt;div&gt;- isbn: Integer&lt;/div&gt;&lt;div&gt;- publcation_year: Integer&lt;/div&gt;&lt;div&gt;- author: String&lt;/div&gt;&lt;div&gt;- genre: String&lt;/div&gt;" style="text;strokeColor=none;fillColor=none;align=left;verticalAlign=top;spacingLeft=4;spacingRight=4;overflow=hidden;rotatable=0;points=[[0,0.5],[1,0.5]];portConstraint=eastwest;whiteSpace=wrap;html=1;" vertex="1" parent="rzZ8jjnwG9v7Gxqw8xNn-24">
          <mxGeometry y="26" width="170" height="94" as="geometry" />
        </mxCell>
        <mxCell id="rzZ8jjnwG9v7Gxqw8xNn-26" value="" style="line;strokeWidth=1;fillColor=none;align=left;verticalAlign=middle;spacingTop=-1;spacingLeft=3;spacingRight=3;rotatable=0;labelPosition=right;points=[];portConstraint=eastwest;strokeColor=inherit;" vertex="1" parent="rzZ8jjnwG9v7Gxqw8xNn-24">
          <mxGeometry y="120" width="170" height="8" as="geometry" />
        </mxCell>
        <mxCell id="rzZ8jjnwG9v7Gxqw8xNn-27" value="+ method(type): type" style="text;strokeColor=none;fillColor=none;align=left;verticalAlign=top;spacingLeft=4;spacingRight=4;overflow=hidden;rotatable=0;points=[[0,0.5],[1,0.5]];portConstraint=eastwest;whiteSpace=wrap;html=1;" vertex="1" parent="rzZ8jjnwG9v7Gxqw8xNn-24">
          <mxGeometry y="128" width="170" height="26" as="geometry" />
        </mxCell>
        <mxCell id="rzZ8jjnwG9v7Gxqw8xNn-28" value="Librarian" style="swimlane;fontStyle=1;align=center;verticalAlign=top;childLayout=stackLayout;horizontal=1;startSize=26;horizontalStack=0;resizeParent=1;resizeParentMax=0;resizeLast=0;collapsible=1;marginBottom=0;whiteSpace=wrap;html=1;fillColor=#e1d5e7;strokeColor=#9673a6;" vertex="1" parent="1">
          <mxGeometry x="657" y="110" width="170" height="170" as="geometry" />
        </mxCell>
        <mxCell id="rzZ8jjnwG9v7Gxqw8xNn-29" value="- staff_id: String(PK)&lt;div&gt;- staff_name: String&lt;/div&gt;&lt;div&gt;- staff_address: String&lt;/div&gt;&lt;div&gt;- staff_phone: String&lt;/div&gt;" style="text;strokeColor=none;fillColor=none;align=left;verticalAlign=top;spacingLeft=4;spacingRight=4;overflow=hidden;rotatable=0;points=[[0,0.5],[1,0.5]];portConstraint=eastwest;whiteSpace=wrap;html=1;" vertex="1" parent="rzZ8jjnwG9v7Gxqw8xNn-28">
          <mxGeometry y="26" width="170" height="84" as="geometry" />
        </mxCell>
        <mxCell id="rzZ8jjnwG9v7Gxqw8xNn-30" value="" style="line;strokeWidth=1;fillColor=none;align=left;verticalAlign=middle;spacingTop=-1;spacingLeft=3;spacingRight=3;rotatable=0;labelPosition=right;points=[];portConstraint=eastwest;strokeColor=inherit;" vertex="1" parent="rzZ8jjnwG9v7Gxqw8xNn-28">
          <mxGeometry y="110" width="170" height="8" as="geometry" />
        </mxCell>
        <mxCell id="rzZ8jjnwG9v7Gxqw8xNn-45" value="+ method(type): type" style="text;strokeColor=none;fillColor=none;align=left;verticalAlign=top;spacingLeft=4;spacingRight=4;overflow=hidden;rotatable=0;points=[[0,0.5],[1,0.5]];portConstraint=eastwest;whiteSpace=wrap;html=1;" vertex="1" parent="rzZ8jjnwG9v7Gxqw8xNn-28">
          <mxGeometry y="118" width="170" height="26" as="geometry" />
        </mxCell>
        <mxCell id="rzZ8jjnwG9v7Gxqw8xNn-31" value="+ method(type): type" style="text;strokeColor=none;fillColor=none;align=left;verticalAlign=top;spacingLeft=4;spacingRight=4;overflow=hidden;rotatable=0;points=[[0,0.5],[1,0.5]];portConstraint=eastwest;whiteSpace=wrap;html=1;" vertex="1" parent="rzZ8jjnwG9v7Gxqw8xNn-28">
          <mxGeometry y="144" width="170" height="26" as="geometry" />
        </mxCell>
        <mxCell id="rzZ8jjnwG9v7Gxqw8xNn-32" value="Member" style="swimlane;fontStyle=1;align=center;verticalAlign=top;childLayout=stackLayout;horizontal=1;startSize=26;horizontalStack=0;resizeParent=1;resizeParentMax=0;resizeLast=0;collapsible=1;marginBottom=0;whiteSpace=wrap;html=1;fillColor=#e1d5e7;strokeColor=#9673a6;" vertex="1" parent="1">
          <mxGeometry x="550" y="630" width="170" height="154" as="geometry" />
        </mxCell>
        <mxCell id="rzZ8jjnwG9v7Gxqw8xNn-33" value="- memeber_id: String(PK)&lt;div&gt;- member_name: String&lt;/div&gt;&lt;div&gt;- member_address: String&lt;/div&gt;&lt;div&gt;- member_mobile: String&lt;/div&gt;" style="text;strokeColor=none;fillColor=none;align=left;verticalAlign=top;spacingLeft=4;spacingRight=4;overflow=hidden;rotatable=0;points=[[0,0.5],[1,0.5]];portConstraint=eastwest;whiteSpace=wrap;html=1;" vertex="1" parent="rzZ8jjnwG9v7Gxqw8xNn-32">
          <mxGeometry y="26" width="170" height="94" as="geometry" />
        </mxCell>
        <mxCell id="rzZ8jjnwG9v7Gxqw8xNn-34" value="" style="line;strokeWidth=1;fillColor=none;align=left;verticalAlign=middle;spacingTop=-1;spacingLeft=3;spacingRight=3;rotatable=0;labelPosition=right;points=[];portConstraint=eastwest;strokeColor=inherit;" vertex="1" parent="rzZ8jjnwG9v7Gxqw8xNn-32">
          <mxGeometry y="120" width="170" height="8" as="geometry" />
        </mxCell>
        <mxCell id="rzZ8jjnwG9v7Gxqw8xNn-35" value="+ method(type): type" style="text;strokeColor=none;fillColor=none;align=left;verticalAlign=top;spacingLeft=4;spacingRight=4;overflow=hidden;rotatable=0;points=[[0,0.5],[1,0.5]];portConstraint=eastwest;whiteSpace=wrap;html=1;" vertex="1" parent="rzZ8jjnwG9v7Gxqw8xNn-32">
          <mxGeometry y="128" width="170" height="26" as="geometry" />
        </mxCell>
        <mxCell id="rzZ8jjnwG9v7Gxqw8xNn-36" value="Loan" style="swimlane;fontStyle=1;align=center;verticalAlign=top;childLayout=stackLayout;horizontal=1;startSize=26;horizontalStack=0;resizeParent=1;resizeParentMax=0;resizeLast=0;collapsible=1;marginBottom=0;whiteSpace=wrap;html=1;fillColor=#e1d5e7;strokeColor=#9673a6;" vertex="1" parent="1">
          <mxGeometry x="657" y="350" width="170" height="144" as="geometry" />
        </mxCell>
        <mxCell id="rzZ8jjnwG9v7Gxqw8xNn-37" value="- loan_date: Date/Time(PK)&lt;div&gt;- return_date: Date/Time&lt;/div&gt;&lt;div&gt;- member: Member(FK)&lt;/div&gt;&lt;div&gt;&lt;span style=&quot;background-color: initial;&quot;&gt;- staff_id: String(FK)&lt;/span&gt;&lt;br&gt;&lt;/div&gt;&lt;div&gt;&lt;span style=&quot;background-color: initial;&quot;&gt;- book:Book(FK)&lt;/span&gt;&lt;/div&gt;" style="text;strokeColor=none;fillColor=none;align=left;verticalAlign=top;spacingLeft=4;spacingRight=4;overflow=hidden;rotatable=0;points=[[0,0.5],[1,0.5]];portConstraint=eastwest;whiteSpace=wrap;html=1;" vertex="1" parent="rzZ8jjnwG9v7Gxqw8xNn-36">
          <mxGeometry y="26" width="170" height="84" as="geometry" />
        </mxCell>
        <mxCell id="rzZ8jjnwG9v7Gxqw8xNn-38" value="" style="line;strokeWidth=1;fillColor=none;align=left;verticalAlign=middle;spacingTop=-1;spacingLeft=3;spacingRight=3;rotatable=0;labelPosition=right;points=[];portConstraint=eastwest;strokeColor=inherit;" vertex="1" parent="rzZ8jjnwG9v7Gxqw8xNn-36">
          <mxGeometry y="110" width="170" height="8" as="geometry" />
        </mxCell>
        <mxCell id="rzZ8jjnwG9v7Gxqw8xNn-39" value="+ method(type): type" style="text;strokeColor=none;fillColor=none;align=left;verticalAlign=top;spacingLeft=4;spacingRight=4;overflow=hidden;rotatable=0;points=[[0,0.5],[1,0.5]];portConstraint=eastwest;whiteSpace=wrap;html=1;" vertex="1" parent="rzZ8jjnwG9v7Gxqw8xNn-36">
          <mxGeometry y="118" width="170" height="26" as="geometry" />
        </mxCell>
        <mxCell id="rzZ8jjnwG9v7Gxqw8xNn-40" value="" style="endArrow=open;endFill=1;endSize=12;html=1;rounded=0;startArrow=ERoneToMany;startFill=0;entryX=0.5;entryY=0;entryDx=0;entryDy=0;exitX=0.156;exitY=1.096;exitDx=0;exitDy=0;exitPerimeter=0;" edge="1" parent="1" source="rzZ8jjnwG9v7Gxqw8xNn-39" target="rzZ8jjnwG9v7Gxqw8xNn-32">
          <mxGeometry width="160" relative="1" as="geometry">
            <mxPoint x="706" y="498" as="sourcePoint" />
            <mxPoint x="690" y="680" as="targetPoint" />
            <Array as="points">
              <mxPoint x="684" y="560" />
              <mxPoint x="635" y="560" />
            </Array>
          </mxGeometry>
        </mxCell>
        <mxCell id="rzZ8jjnwG9v7Gxqw8xNn-42" value="Borrows&lt;br&gt;Books" style="edgeLabel;html=1;align=center;verticalAlign=middle;resizable=0;points=[];" vertex="1" connectable="0" parent="rzZ8jjnwG9v7Gxqw8xNn-40">
          <mxGeometry x="-0.0336" y="1" relative="1" as="geometry">
            <mxPoint y="-11" as="offset" />
          </mxGeometry>
        </mxCell>
        <mxCell id="rzZ8jjnwG9v7Gxqw8xNn-43" value="" style="endArrow=open;endFill=1;endSize=12;html=1;rounded=0;startArrow=ERoneToMany;startFill=0;exitX=0.838;exitY=1.135;exitDx=0;exitDy=0;exitPerimeter=0;" edge="1" parent="1" source="rzZ8jjnwG9v7Gxqw8xNn-39">
          <mxGeometry width="160" relative="1" as="geometry">
            <mxPoint x="810" y="538" as="sourcePoint" />
            <mxPoint x="840" y="630" as="targetPoint" />
            <Array as="points">
              <mxPoint x="800" y="560" />
              <mxPoint x="840" y="560" />
            </Array>
          </mxGeometry>
        </mxCell>
        <mxCell id="rzZ8jjnwG9v7Gxqw8xNn-44" value="Book is&lt;br&gt;Borrowed" style="edgeLabel;html=1;align=center;verticalAlign=middle;resizable=0;points=[];" vertex="1" connectable="0" parent="rzZ8jjnwG9v7Gxqw8xNn-43">
          <mxGeometry x="-0.002" y="-1" relative="1" as="geometry">
            <mxPoint x="-4" y="-11" as="offset" />
          </mxGeometry>
        </mxCell>
        <mxCell id="rzZ8jjnwG9v7Gxqw8xNn-46" value="" style="endArrow=open;endFill=1;endSize=12;html=1;rounded=0;startArrow=ERoneToMany;startFill=0;entryX=0.503;entryY=1.135;entryDx=0;entryDy=0;exitX=0.5;exitY=0;exitDx=0;exitDy=0;entryPerimeter=0;" edge="1" parent="1" source="rzZ8jjnwG9v7Gxqw8xNn-36" target="rzZ8jjnwG9v7Gxqw8xNn-31">
          <mxGeometry width="160" relative="1" as="geometry">
            <mxPoint x="742" y="280" as="sourcePoint" />
            <mxPoint x="644" y="440" as="targetPoint" />
            <Array as="points">
              <mxPoint x="742" y="330" />
            </Array>
          </mxGeometry>
        </mxCell>
        <mxCell id="rzZ8jjnwG9v7Gxqw8xNn-47" value="Processes&lt;br&gt;Loans" style="edgeLabel;html=1;align=center;verticalAlign=middle;resizable=0;points=[];" vertex="1" connectable="0" parent="rzZ8jjnwG9v7Gxqw8xNn-46">
          <mxGeometry x="-0.0336" y="1" relative="1" as="geometry">
            <mxPoint x="-1" y="-4" as="offset" />
          </mxGeometry>
        </mxCell>
      </root>
    </mxGraphModel>
  </diagram>
</mxfile>
